<?xml version="1.0" standalone="no"?>
<!DOCTYPE svg PUBLIC "-//W3C//DTD SVG 20010904//EN"
 "http://www.w3.org/TR/2001/REC-SVG-20010904/DTD/svg10.dtd">
<svg version="1.0" xmlns="http://www.w3.org/2000/svg"
 width="70.000000pt" height="70.000000pt" viewBox="0 0 70.000000 70.000000"
 preserveAspectRatio="xMidYMid meet">
<metadata>
Created by potrace 1.14, written by Peter Selinger 2001-2017
</metadata>
<g transform="translate(0.000000,70.000000) scale(0.100000,-0.100000)"
fill="#000000" stroke="none">
<path d="M40 529 c-9 -15 -8 -31 4 -66 20 -59 21 -58 -10 -72 l-27 -12 29 -30
c21 -22 32 -47 40 -92 l12 -62 1 61 c1 53 5 64 31 89 l30 28 -30 19 c-33 20
-37 30 -16 47 30 25 26 101 -5 101 -6 0 -6 -8 1 -21 12 -22 7 -49 -9 -49 -5 0
-7 9 -4 20 4 14 0 20 -12 20 -12 0 -16 -6 -12 -20 3 -11 1 -18 -4 -14 -14 8
-11 36 8 56 15 16 15 18 0 18 -9 0 -21 -9 -27 -21z"/>
<path d="M189 455 c-17 -36 -21 -55 -13 -55 6 0 14 9 17 20 3 11 13 20 22 20
9 0 19 -9 22 -20 3 -11 11 -20 19 -20 10 0 7 13 -10 51 -13 27 -26 52 -28 54
-2 2 -15 -20 -29 -50z m31 5 c0 -5 -5 -10 -11 -10 -5 0 -7 5 -4 10 3 6 8 10
11 10 2 0 4 -4 4 -10z"/>
<path d="M280 455 l0 -55 33 1 c23 1 26 3 10 6 -20 4 -23 11 -23 54 0 27 -4
49 -10 49 -5 0 -10 -25 -10 -55z"/>
<path d="M360 455 c0 -30 5 -55 10 -55 6 0 10 25 10 55 0 30 -4 55 -10 55 -5
0 -10 -25 -10 -55z"/>
<path d="M502 494 c-24 -17 -30 -62 -10 -82 7 -7 26 -12 43 -12 40 0 55 16 55
57 0 27 -5 35 -26 43 -33 13 -36 13 -62 -6z m56 -6 c18 -18 15 -68 -4 -75 -37
-14 -70 41 -44 73 15 17 32 18 48 2z"/>
<path d="M615 455 c0 -34 4 -55 11 -55 6 0 9 10 7 24 -4 19 0 25 18 29 24 4
24 4 2 6 -16 1 -23 7 -23 22 0 16 5 20 20 16 11 -3 20 -1 20 4 0 5 -12 9 -27
9 -27 0 -28 -2 -28 -55z"/>
<path d="M405 490 c-5 -9 0 -21 18 -36 15 -13 27 -28 27 -34 0 -14 -23 -13
-39 3 -11 10 -13 9 -9 -3 3 -8 17 -16 31 -18 39 -5 48 25 15 52 -14 12 -27 28
-30 36 -4 12 -6 12 -13 0z"/>
<path d="M469 343 c-13 -16 -12 -17 4 -4 9 7 17 15 17 17 0 8 -8 3 -21 -13z"/>
<path d="M577 313 c-4 -3 -7 -11 -7 -17 0 -6 5 -5 12 2 6 6 9 14 7 17 -3 3 -9
2 -12 -2z"/>
<path d="M235 299 c-4 -6 -5 -12 -2 -15 2 -3 7 2 10 11 7 17 1 20 -8 4z"/>
<path d="M299 273 c-13 -16 -12 -17 4 -4 9 7 17 15 17 17 0 8 -8 3 -21 -13z"/>
<path d="M377 271 c-4 -17 -3 -21 5 -13 5 5 8 16 6 23 -3 8 -7 3 -11 -10z"/>
<path d="M490 269 c-7 -11 -10 -23 -7 -25 2 -2 9 7 15 21 14 30 7 33 -8 4z"/>
<path d="M432 260 c0 -14 2 -19 5 -12 2 6 2 18 0 25 -3 6 -5 1 -5 -13z"/>
<path d="M222 250 c0 -14 2 -19 5 -12 2 6 2 18 0 25 -3 6 -5 1 -5 -13z"/>
</g>
</svg>
